<svg width="50" height="30" viewBox="0 0 50 30" fill="none" xmlns="http://www.w3.org/2000/svg">
<path d="M23.1521 0C21.2906 0 19.6005 0.747012 18.3649 1.9565H4.89129C2.19422 1.9565 0 4.15078 0 6.84785C0 9.54492 2.19422 11.7391 4.89129 11.7391H18.3649C19.6005 12.9487 21.2906 13.6956 23.1521 13.6956C26.928 13.6956 30 10.6237 30 6.84779C30 3.07189 26.928 0 23.1521 0ZM16.966 9.78264H4.89129C3.27305 9.78264 1.9565 8.46609 1.9565 6.84785C1.9565 5.22961 3.27305 3.91307 4.89129 3.91307H16.9659C16.542 4.80311 16.3043 5.7982 16.3043 6.84785C16.3043 7.8975 16.5421 8.8926 16.966 9.78264ZM23.1521 11.7391C20.4551 11.7391 18.2609 9.54492 18.2609 6.84785C18.2609 4.15078 20.4551 1.95656 23.1521 1.95656C25.8492 1.95656 28.0434 4.15078 28.0434 6.84785C28.0434 9.54492 25.8492 11.7391 23.1521 11.7391Z" fill="#B8B4B4"/>
<path d="M25.1087 18.2609H11.6351C10.3995 17.0514 8.70943 16.3044 6.84785 16.3044C3.07195 16.3044 0 19.3763 0 23.1521C0 26.928 3.07195 30 6.84785 30C8.70943 30 10.3995 29.253 11.6351 28.0435H25.1087C27.8058 28.0435 30 25.8493 30 23.1522C30 20.4551 27.8058 18.2609 25.1087 18.2609ZM6.84785 28.0435C4.15078 28.0435 1.95656 25.8493 1.95656 23.1522C1.95656 20.4551 4.15078 18.2609 6.84785 18.2609C9.54492 18.2609 11.7391 20.4551 11.7391 23.1522C11.7391 25.8493 9.54486 28.0435 6.84785 28.0435ZM25.1087 26.0869H13.034C13.4579 25.1969 13.6956 24.2018 13.6956 23.1521C13.6956 22.1025 13.4579 21.1074 13.034 20.2174H25.1087C26.7269 20.2174 28.0434 21.5339 28.0434 23.1521C28.0434 24.7704 26.727 26.0869 25.1087 26.0869Z" fill="#B8B4B4"/>
</svg>
