<svg width="17" height="22" viewBox="0 0 17 22" fill="none" xmlns="http://www.w3.org/2000/svg">
<path d="M16.9374 20.5427L14.9498 15.0903C14.8283 14.7562 14.549 14.5396 14.2397 14.5396H12.9235L13.3975 13.9841C14.7241 12.4356 15.4545 10.3741 15.4545 8.17855C15.4545 3.66906 12.3349 0 8.49998 0C4.66502 0 1.54543 3.66906 1.54543 8.17855C1.54543 10.3741 2.27591 12.4356 3.60253 13.9832L4.07718 14.5397H2.76034C2.45094 14.5397 2.17174 14.7562 2.05025 15.0903L0.0625913 20.5427C-0.0400246 20.8236 -0.0151403 21.1462 0.1275 21.4009C0.270866 21.656 0.513116 21.8095 0.772716 21.8095H16.2274C16.487 21.8095 16.7292 21.656 16.8726 21.4009C17.0151 21.1461 17.04 20.8235 16.9374 20.5427ZM8.49998 4.54366C10.2047 4.54366 11.5909 6.1743 11.5909 8.17855C11.5909 10.1828 10.2047 11.8135 8.49998 11.8135C6.79529 11.8135 5.40909 10.1828 5.40909 8.17855C5.40909 6.1743 6.79529 4.54366 8.49998 4.54366ZM1.94459 19.992L3.26969 16.3571H5.62757L8.22756 19.405C8.30229 19.4933 8.40114 19.5377 8.49998 19.5377C8.59883 19.5377 8.69768 19.4933 8.77241 19.405L11.3728 16.3571H13.7303L15.0554 19.992H1.94459Z" fill="#E7E7E7"/>
</svg>
