<svg width="19" height="19" viewBox="0 0 19 19" fill="none" xmlns="http://www.w3.org/2000/svg">
<path d="M17.0045 18.1364V18.3H14.5182V18.1364V17.4364H13.8182H5.18182H4.48182V18.1364V18.3H1.99545V18.1364V17.4364H1.29545C1.20083 17.4364 1.069 17.3872 0.931344 17.1887C0.791577 16.9872 0.7 16.6967 0.7 16.4091V10.2255C0.7 8.26078 1.18194 4.8965 1.55321 2.38301C1.5854 2.2267 1.61113 2.09206 1.63485 1.96793C1.66645 1.80261 1.69448 1.65594 1.72944 1.50159C1.78751 1.24523 1.84275 1.07983 1.90439 0.966534C1.95757 0.868762 2.00901 0.821216 2.07391 0.787492C2.15086 0.747504 2.3009 0.7 2.59091 0.7H7.752H11.2649H16.4091C16.6993 0.7 16.8494 0.747524 16.9263 0.787478C16.991 0.821144 17.0424 0.868593 17.0955 0.966324C17.1571 1.07963 17.2123 1.24504 17.2703 1.50153C17.3052 1.65551 17.3331 1.80105 17.3644 1.96497C17.3883 2.08977 17.4142 2.22523 17.4468 2.38317C17.8181 4.8967 18.3 8.25961 18.3 10.2255V16.4091C18.3 16.6967 18.2084 16.9872 18.0687 17.1887C17.931 17.3872 17.7992 17.4364 17.7045 17.4364H17.0045V18.1364Z" stroke="#4A90E2" stroke-width="1.4"/>
<path d="M0.863281 13.8182L9.49964 14.6819L18.136 13.8182" stroke="#4A90E2" stroke-width="1.4"/>
<path d="M1.72656 2.59094L6.04474 2.80685L6.47656 4.10231H12.0902L12.522 2.80685L17.272 2.59094" stroke="#4A90E2" stroke-width="1.4"/>
<line y1="-0.7" x2="2.73106" y2="-0.7" transform="matrix(0.316228 -0.948683 0.992877 0.119145 12.9531 17.2727)" stroke="#4A90E2" stroke-width="1.4"/>
<line x1="2.42656" y1="17.4364" x2="4.48111" y2="17.4364" stroke="#4A90E2" stroke-width="1.4" stroke-linecap="round"/>
<line x1="14.5203" y1="17.4364" x2="16.5749" y2="17.4364" stroke="#4A90E2" stroke-width="1.4" stroke-linecap="round"/>
<line x1="2.42656" y1="15.7092" x2="4.48111" y2="15.7092" stroke="#4A90E2" stroke-width="1.4" stroke-linecap="round"/>
<line x1="14.5203" y1="15.7092" x2="16.5749" y2="15.7092" stroke="#4A90E2" stroke-width="1.4" stroke-linecap="round"/>
<line y1="-0.7" x2="2.73106" y2="-0.7" transform="matrix(0.316227 0.948683 -0.992877 0.119145 5.18359 14.6818)" stroke="#4A90E2" stroke-width="1.4"/>
</svg>
