<svg width="24" height="14" viewBox="0 0 24 14" fill="none" xmlns="http://www.w3.org/2000/svg">
<path fill-rule="evenodd" clip-rule="evenodd" d="M4.77963 0H12.2564C14.3006 0 16.3195 1.9705 16.5904 2.8893L18.826 5.77859H0.699219L1.94162 1.56239C2.21249 0.644313 3.36026 0 4.77963 0ZM15.2741 3.27721C15.092 2.81492 13.6098 1.37244 12.2569 1.37244H4.78014C3.88012 1.37244 3.3196 1.74299 3.25893 1.9503L2.53516 4.4062H16.0289L15.5052 3.72938L15.347 3.52496L15.2741 3.27721Z" fill="#4A90E2"/>
<path d="M11.6005 7.94563H10.7547C10.3892 7.94563 10.0938 7.65019 10.0938 7.28542V7.1619C10.0938 6.79641 10.3892 6.50098 10.754 6.50098H11.5998C11.9653 6.50098 12.2607 6.79641 12.2607 7.16118V7.2847C12.2607 7.65019 11.9653 7.94563 11.6005 7.94563Z" fill="#4A90E2"/>
<path d="M11.6005 6.50098H10.7547C10.3892 6.50098 10.0938 6.79641 10.0938 7.16118V7.2847C10.0938 7.65019 10.3892 7.94563 10.754 7.94563H11.5998C11.9653 7.94563 12.2607 7.65019 12.2607 7.28542V7.1619C12.2607 6.79641 11.9653 6.50098 11.6005 6.50098Z" fill="#4A90E2"/>
<path d="M9.37043 0.660204V5.11767C9.37043 5.48316 9.075 5.77859 8.71023 5.77859H8.58671C8.22121 5.77859 7.92578 5.48316 7.92578 5.11839V0.660927C7.92578 0.295431 8.22121 0 8.58599 0H8.7095C9.075 0 9.37043 0.295431 9.37043 0.660204Z" fill="#4A90E2"/>
<path d="M8.71023 0H8.58671C8.22121 0 7.92578 0.295431 7.92578 0.660204V5.11767C7.92578 5.48316 8.22121 5.77859 8.58599 5.77859H8.7095C9.075 5.77859 9.37043 5.48316 9.37043 5.11839V0.660927C9.37043 0.295431 9.075 0 8.71023 0Z" fill="#4A90E2"/>
<path d="M7.20312 10.1486H14.2573V11.521H7.20312V10.1486Z" fill="#4A90E2"/>
<path d="M22.5189 11.5212H19.47V10.1488H22.2011C22.8714 9.72482 22.5976 8.6305 22.4416 8.16315C21.7402 6.05758 19.3811 5.74265 18.0369 5.74265H1.84452C1.34178 6.87814 1.35912 8.28378 1.37862 9.88734C1.38007 9.97402 1.38079 10.0607 1.38151 10.1481H3.36357V11.5205H0.0148723V10.835C0.0148723 10.5215 0.0112607 10.2117 0.00764906 9.90468C-0.0161876 8.0158 -0.0378574 6.23094 0.82821 4.7155L1.0254 4.36951H18.0369C20.9955 4.36951 23.0223 5.56206 23.744 7.72759C24.3225 9.46262 23.9043 10.8928 22.654 11.4591L22.5189 11.5212Z" fill="#4A90E2"/>
<path fill-rule="evenodd" clip-rule="evenodd" d="M2.14062 10.1126C2.14062 11.706 3.43647 13.0019 5.02992 13.0019C6.62337 13.0019 7.91922 11.706 7.91922 10.1126C7.91922 8.51912 6.62337 7.22327 5.02992 7.22327C3.43647 7.22327 2.14062 8.51912 2.14062 10.1126ZM3.58594 10.1125C3.58594 9.31577 4.23386 8.66785 5.03059 8.66785C5.82731 8.66785 6.47523 9.31577 6.47523 10.1125C6.47523 10.9092 5.82731 11.5571 5.03059 11.5571C4.23386 11.5571 3.58594 10.9092 3.58594 10.1125Z" fill="#4A90E2"/>
<path fill-rule="evenodd" clip-rule="evenodd" d="M14.0312 10.1126C14.0312 11.6858 15.3112 12.9658 16.8844 12.9658C18.4577 12.9658 19.7376 11.6858 19.7376 10.1126C19.7376 8.53936 18.4577 7.2594 16.8844 7.2594C15.3112 7.2594 14.0312 8.53936 14.0312 10.1126ZM15.4023 10.1126C15.4023 9.29637 16.0669 8.63184 16.8831 8.63184C17.6993 8.63184 18.3639 9.29637 18.3639 10.1126C18.3639 10.9288 17.7001 11.5934 16.8831 11.5934C16.0662 11.5934 15.4023 10.9288 15.4023 10.1126Z" fill="#4A90E2"/>
</svg>
