<svg width="20" height="19" viewBox="0 0 20 19" fill="none" xmlns="http://www.w3.org/2000/svg">
<rect x="0.75" y="0.75" width="18.5" height="17.5" rx="1.25" stroke="#4A90E2" stroke-width="1.5"/>
<path d="M7 15V4H10.9535C11.6494 4 12.1808 4.03502 12.5478 4.10505C13.0626 4.19509 13.4939 4.36767 13.8418 4.62278C14.1898 4.8729 14.4686 5.22556 14.6783 5.68076C14.8928 6.13597 15 6.6362 15 7.18145C15 8.11687 14.7164 8.90973 14.1492 9.56003C13.5821 10.2053 12.5573 10.528 11.0751 10.528H8.38695V15H7ZM8.38695 9.22988H11.0965C11.9926 9.22988 12.6288 9.0548 13.0054 8.70464C13.3819 8.35448 13.5702 7.86176 13.5702 7.22647C13.5702 6.76626 13.4581 6.37358 13.2341 6.04843C13.0149 5.71828 12.7242 5.50068 12.3619 5.39563C12.1284 5.3306 11.6971 5.29809 11.0679 5.29809H8.38695V9.22988Z" fill="#4A90E2"/>
</svg>
