<svg width="31" height="31" viewBox="0 0 31 31" fill="none" xmlns="http://www.w3.org/2000/svg">
<path d="M19.9145 20.0804L19.0003 20.0897C18.6061 20.0937 18.2828 19.7775 18.2789 19.3832L18.2774 19.2497C18.2735 18.8554 18.5897 18.5322 18.9839 18.5283L19.8981 18.519C20.2924 18.5151 20.6156 18.8312 20.6195 19.2255L20.6211 19.359C20.625 19.7533 20.3088 20.0765 19.9145 20.0804Z" fill="#4A90E2"/>
<path d="M19.9059 18.5189C19.9036 18.5189 19.9013 18.5189 19.8981 18.5189L18.9839 18.5283C18.5897 18.5322 18.2735 18.8554 18.2774 19.2497L18.2789 19.3832C18.2828 19.7751 18.6022 20.0897 18.9925 20.0897C18.9949 20.0897 18.9972 20.0897 19.0003 20.0897L19.9145 20.0803C20.3088 20.0764 20.625 19.7532 20.6211 19.359L20.6195 19.2255C20.6156 18.8335 20.2963 18.5189 19.9059 18.5189Z" fill="#4A90E2"/>
<path d="M25.7466 19.6448L24.8323 19.6542C24.4381 19.6581 24.1149 19.3419 24.111 18.9477L24.1094 18.8142C24.1055 18.4199 24.4217 18.0967 24.816 18.0928L25.7302 18.0834C26.1244 18.0795 26.4476 18.3957 26.4515 18.79L26.4531 18.9235C26.4578 19.3177 26.1408 19.6409 25.7466 19.6448Z" fill="#F37B09"/>
<path d="M25.738 18.0834C25.7356 18.0834 25.7333 18.0834 25.7302 18.0834L24.816 18.0927C24.4217 18.0966 24.1055 18.4199 24.1094 18.8141L24.111 18.9476C24.1149 19.3395 24.4342 19.6542 24.8245 19.6542C24.8269 19.6542 24.8292 19.6542 24.8323 19.6542L25.7466 19.6448C26.1408 19.6409 26.457 19.3177 26.4531 18.9234L26.4515 18.7899C26.4476 18.398 26.1291 18.0834 25.738 18.0834Z" fill="#4A90E2"/>
<path d="M3.44531 23.25V21.5278H24.112C25.1566 21.77 26.0276 20.6997 25.8342 19.8055C25.9708 16.3279 24.6301 13.7435 22.3898 12.0555C19.4113 10.3893 15.9733 10.061 13.7786 10.3333H3.44531V8.61108H13.7786C16.1623 8.59029 19.9035 8.95583 23.2509 11.1944C25.8503 12.777 27.418 15.7424 27.5564 19.8055C27.5525 19.6929 27.5525 19.4149 27.5564 19.8055C27.5525 20.1916 27.5564 20.0631 27.5564 19.8055C27.348 21.5679 26.0105 23.2337 24.112 23.25H3.44531Z" fill="#4A90E2"/>
<path d="M3.44531 24.9722H26.6953V26.6944H3.44531V24.9722Z" fill="#4A90E2"/>
<path d="M14.638 16.3611L12.0547 11.1945H22.388L24.1102 12.9167H14.638L15.4991 14.6389H25.8325V16.3611H14.638Z" fill="#4A90E2"/>
<path fill-rule="evenodd" clip-rule="evenodd" d="M3.44531 16.3611H12.0564L10.3342 11.1945H3.44531V16.3611ZM9.47309 14.6389H5.16754V12.9167H9.47309V14.6389Z" fill="#4A90E2"/>
<path d="M6.02865 9.47218L3.44531 5.16663H11.1953L12.9175 8.61107L11.1953 9.47218L10.3342 6.88885H6.02865L7.75087 8.61107L6.02865 9.47218Z" fill="#4A90E2"/>
</svg>
